<?xml version="1.0" standalone="no"?><!DOCTYPE svg PUBLIC "-//W3C//DTD SVG 1.1//EN" "http://www.w3.org/Graphics/SVG/1.1/DTD/svg11.dtd"><svg t="1647002847339" class="icon" viewBox="0 0 1024 1024" version="1.1" xmlns="http://www.w3.org/2000/svg" p-id="1778" xmlns:xlink="http://www.w3.org/1999/xlink" width="200" height="200"><defs><style type="text/css"></style></defs><path d="M881.084309 756.152438H573.119389l49.087509-75.519244H831.9968l49.02351 75.519244zM460.800512 0C313.729983 0 194.563174 117.95082 194.563174 263.421366c0 145.534545 137.662623-51.96748 284.797152-51.967481 147.00653 0 247.741523 197.502025 247.741523 51.967481C727.101849 117.95082 607.871041 0 460.864511 0z m83.839162 1001.333987v-257.917421l62.527374-90.111099h239.869602l62.591374 90.111099v196.99003c31.551684-40.767592 50.367496-100.478995 50.367496-187.582124 0-104.702953-157.822422-157.694423-301.884981-204.285957-9.599904-3.135969-24.703753-24.831752-38.079619-41.151589a366.332337 366.332337 0 0 0 98.303017-174.078259c-27.391726 35.839642-117.310827-99.263007-239.03761-99.263007-127.03873 0-247.03753 147.262527-277.373226 93.503065 15.103849 68.479315 52.607474 135.99864 103.806962 183.870161-6.911931 14.399856-12.863871 31.615684-23.03977 37.119629C160.259517 614.521855 64.00448 746.424536 64.00448 849.207508c0 150.0145 176.830232 167.870321 394.876051 167.870321 122.366776 0 265.02135 23.359766 366.780332-15.743842H544.639674z m336.444635-225.277748H573.119389v199.806002h307.96492v-199.806002z" p-id="1779" fill="currentColor"></path></svg>