<?xml version="1.0" standalone="no"?><!DOCTYPE svg PUBLIC "-//W3C//DTD SVG 1.1//EN" "http://www.w3.org/Graphics/SVG/1.1/DTD/svg11.dtd"><svg t="1647002829855" class="icon" viewBox="0 0 1024 1024" version="1.1" xmlns="http://www.w3.org/2000/svg" p-id="1390" xmlns:xlink="http://www.w3.org/1999/xlink" width="200" height="200"><defs><style type="text/css"></style></defs><path d="M930.806301 356.276789c-12.963237-14.037938-30.823135-21.773976-50.417004-21.773976H539.120385c-19.532457 0-37.394162 7.736038-50.297793 21.773976-12.963237 14.037938-19.174826 32.5264-17.442661 51.968546L489.599266 622.784471c-34.825717-14.812806-70.368504-23.53504-106.090106-26.163089V338.415085c29.031365-9.618119 49.997961-36.946219 49.997961-69.084282V135.285838c0-40.143228-32.67451-72.787032-72.758133-72.787032-40.201027 0-72.817738 32.645611-72.817737 72.787032v134.046771c0 32.136257 21.028007 59.466163 49.938355 69.084282v258.327314c-87.334323 6.332605-166.842298 49.221287-220.602614 119.889623a304.499702 304.499702 0 0 0-37.15574 63.55725l-1.851375 4.360214v176.637426h588.096026v-0.178816h164.869906c38.647678 0 72.756326-31.420994 76.103251-70.010872L948.247156 408.187536c1.61476-19.384347-4.65824-37.87281-17.440855-51.910747zM333.451594 135.285838c0-14.993428 12.246168-27.17999 27.299201-27.179991 14.933823 0 27.120385 12.186563 27.120385 27.179991v134.046771c0 14.993428-12.186563 27.20889-27.120385 27.20889-15.053033 0-27.299201-12.215462-27.299201-27.20889V135.285838z m376.33305 447.657044c-70.66653 0-128.131402-57.526284-128.131403-128.192814 0-12.634505 10.214171-22.819777 22.760172-22.819777 12.605606 0 22.819777 10.185272 22.819776 22.819777 0 45.518537 36.976925 82.583966 82.553261 82.583966 45.458931 0 82.555067-37.06543 82.555067-82.583966 0-12.634505 10.214171-22.819777 22.819776-22.819777 12.544194 0 22.760171 10.185272 22.760172 22.819777-0.003612 70.668336-57.408879 128.192814-128.136821 128.192814z" fill="currentColor" p-id="1391"></path></svg>