<?xml version="1.0" standalone="no"?><!DOCTYPE svg PUBLIC "-//W3C//DTD SVG 1.1//EN" "http://www.w3.org/Graphics/SVG/1.1/DTD/svg11.dtd"><svg t="1647002811761" class="icon" viewBox="0 0 1024 1024" version="1.1" xmlns="http://www.w3.org/2000/svg" p-id="888" xmlns:xlink="http://www.w3.org/1999/xlink" width="200" height="200"><defs><style type="text/css"></style></defs><path d="M789.333 234.667h-10.666V192a85.333 85.333 0 0 0-85.334-85.333H330.667A85.333 85.333 0 0 0 245.333 192v42.667h-10.666a128 128 0 0 0-128 128v42.666h810.666v-42.666a128 128 0 0 0-128-128z m-480-42.667c0-11.755 9.579-21.333 21.334-21.333h362.666c11.755 0 21.334 9.578 21.334 21.333v42.667H309.333V192zM106.667 448v341.333a128 128 0 0 0 128 128h554.666a128 128 0 0 0 128-128V448H106.667z m503.786 264.213h-68.928v68.928a29.525 29.525 0 1 1-59.072-0.021v-68.928h-68.928a29.525 29.525 0 1 1 0.022-59.072h68.928v-68.928a29.525 29.525 0 1 1 59.072 0.021v68.928h68.928a29.525 29.525 0 1 1-0.022 59.072z" p-id="889" fill="currentColor"></path></svg>