<?xml version="1.0" standalone="no"?><!DOCTYPE svg PUBLIC "-//W3C//DTD SVG 1.1//EN" "http://www.w3.org/Graphics/SVG/1.1/DTD/svg11.dtd"><svg t="1647089270477" class="icon" viewBox="0 0 1194 1024" version="1.1" xmlns="http://www.w3.org/2000/svg" p-id="4805" xmlns:xlink="http://www.w3.org/1999/xlink" width="233.203125" height="200"><defs><style type="text/css"></style></defs><path d="M597.268961 1024a62.571034 62.571034 0 0 1-33.219531-9.442538C540.841265 1001.92949 0 683.784223 0 332.533191A341.637846 341.637846 0 0 1 350.056494 0.110353 357.280604 357.280604 0 0 1 597.268961 97.778048 364.447832 364.447832 0 0 1 844.424545 0.110353 341.637846 341.637846 0 0 1 1194.537922 332.476309c0 351.251032-540.898148 669.453181-564.106313 682.02427A62.115972 62.115972 0 0 1 597.268961 1024zM412.911942 416.776556a60.466372 60.466372 0 0 0-42.434538 17.064828 58.304827 58.304827 0 0 0-17.519889 41.581296 56.882758 56.882758 0 0 0 17.064827 41.922593 59.271834 59.271834 0 0 0 42.832717 17.064827h119.908854a20.534676 20.534676 0 0 1 15.528993 5.688276 19.624552 19.624552 0 0 1 5.688276 15.244579v117.576661a58.304827 58.304827 0 0 0 17.51989 41.581297 60.466372 60.466372 0 0 0 42.434537 17.064827 59.101186 59.101186 0 0 0 42.8896-16.723531 56.882758 56.882758 0 0 0 17.064827-41.979475V555.22919a19.624552 19.624552 0 0 1 5.688276-15.244579 20.42091 20.42091 0 0 1 15.528993-5.688276h119.851972a60.409489 60.409489 0 0 0 42.434537-17.064828 57.849765 57.849765 0 0 0 17.51989-41.581296 56.882758 56.882758 0 0 0-17.064828-41.979476 59.214951 59.214951 0 0 0-42.832717-16.780413H695.676133a20.364027 20.364027 0 0 1-15.528993-5.688276 19.681434 19.681434 0 0 1-5.688276-15.244579V278.26704a57.849765 57.849765 0 0 0-17.51989-41.524413 60.523255 60.523255 0 0 0-42.377654-17.064828 59.101186 59.101186 0 0 0-42.832717 17.064828 56.882758 56.882758 0 0 0-17.064828 41.922592v117.406013a19.681434 19.681434 0 0 1-5.688276 15.24458 20.42091 20.42091 0 0 1-15.528993 5.688275z" p-id="4806" fill="currentColor"></path></svg>